<svg xmlns="http://www.w3.org/2000/svg" viewBox="0 0 202.5 372"><path d="M130.5 151.9h-52c-1.1 0-2-.9-2-2s.9-2 2-2h52c1.1 0 2 .9 2 2s-.9 2-2 2z" fill="#fff"/><path fill="#fff" d="M79.5 146.9h50v103h-50z"/><path d="M131.5 147.9h-54c-4.9 0-9-4-9-9 0-4.9 4-9 9-9h54c4.9 0 9 4.1 9 9 0 5-4.1 9-9 9zM104.5 209.9c-41.7 0-75.5 33.8-75.5 75.5s33.8 75.5 75.5 75.5 75.5-33.8 75.5-75.5-33.9-75.5-75.5-75.5zm.3 133c-33.1 0-59.9-26.7-60.2-59.7 13-5.5 26.2-9.9 34.8-9.9 22.7 0 45.8 21.7 84.5 12.2.3-.1.6-.2.9-.2-1.2 32-27.6 57.6-60 57.6z" fill="#fff"/><path class="liquidBase" d="M164 285.4c-38.7 9.5-61.8-12.2-84.5-12.2-8.6 0-21.8 4.4-34.8 9.9.2 33 27.1 59.7 60.2 59.7 32.4 0 58.8-25.6 60.1-57.7-.4.1-.7.2-1 .3z" fill="#006e31"/><path class="liquid" d="M164 285.4c-38.7 9.5-61.8-12.2-84.5-12.2-8.6 0-21.8 4.4-34.8 9.9.2 33 27.1 59.7 60.2 59.7 32.4 0 58.8-25.6 60.1-57.7-.4.1-.7.2-1 .3z" fill="#0a483d"/><g class="bubbles" fill="#efefef"><circle cx="86.1" cy="106.2" r="9.7"/><circle cx="125" cy="99" r="8.4"/><circle cx="78" cy="71.6" r="4.3"/><circle cx="89.4" cy="55.8" r="3.3"/><circle cx="101.3" cy="77.1" r="5.5"/><circle cx="125.2" cy="66.8" r="4.2"/><circle cx="109.7" cy="35.5" r="2.9"/><circle cx="83.2" cy="35.5" r="2.9"/><circle cx="91" cy="22.9" r="1.7"/><circle cx="127.9" cy="29.7" r="2.8"/></g></svg>